<?xml version="1.0" encoding="UTF-8"?>
<!DOCTYPE svg PUBLIC "-//W3C//DTD SVG 1.1//EN" "http://www.w3.org/Graphics/SVG/1.1/DTD/svg11.dtd">
<svg xmlns="http://www.w3.org/2000/svg" version="1.1" width="128px" height="128px" style="shape-rendering:geometricPrecision; text-rendering:geometricPrecision; image-rendering:optimizeQuality; fill-rule:evenodd; clip-rule:evenodd" xmlns:xlink="http://www.w3.org/1999/xlink">
<g><path style="opacity:0.96" fill="#8c9195" d="M 64.5,-0.5 C 71.1667,-0.5 77.8333,-0.5 84.5,-0.5C 92.4299,0.148403 100.43,1.31507 108.5,3C 116.661,7.79481 121.495,14.9615 123,24.5C 125.497,51.9461 124.497,79.2794 120,106.5C 118.381,115.454 113.214,121.287 104.5,124C 76.0729,126.143 47.7395,125.143 19.5,121C 13.3333,118.833 9.16667,114.667 7,108.5C 1.64569,80.0351 -0.0209736,51.3684 2,22.5C 3.98568,13.1819 9.48568,7.0152 18.5,4C 33.9113,1.82888 49.2446,0.328884 64.5,-0.5 Z"/></g>
<g><path style="opacity:1" fill="#ced4d9" d="M 54.5,2.5 C 69.8694,2.14125 85.2027,2.64125 100.5,4C 108.081,4.95205 113.247,8.78538 116,15.5C 112.313,10.8195 107.48,8.31948 101.5,8C 74.0985,5.9104 46.7652,6.57707 19.5,10C 14.2883,11.1979 10.1217,14.0313 7,18.5C 8.68422,12.8146 12.5176,8.98128 18.5,7C 30.6165,5.4201 42.6165,3.9201 54.5,2.5 Z"/></g>
<g><path style="opacity:1" fill="#d4dade" d="M 44.5,9.5 C 62.5031,9.33339 80.5031,9.50006 98.5,10C 106.539,10.1806 112.539,13.6806 116.5,20.5C 116.333,20.8333 116.167,21.1667 116,21.5C 112.703,18.4333 108.869,16.2666 104.5,15C 75.7548,12.5478 47.0881,13.2144 18.5,17C 13.7609,18.119 9.92759,20.619 7,24.5C 8.61608,19.2052 12.1161,15.3719 17.5,13C 26.6057,11.6637 35.6057,10.497 44.5,9.5 Z"/></g>
<g><path style="opacity:1" fill="#dfe1e5" d="M 120.5,38.5 C 120.628,47.8662 120.128,57.1996 119,66.5C 118.667,61.8333 118.333,57.1667 118,52.5C 116.334,55.3312 114.168,57.6645 111.5,59.5C 111.389,58.8826 111.056,58.3826 110.5,58C 77.4285,57.1745 44.4285,57.3412 11.5,58.5C 11.8994,54.9891 12.5661,51.6557 13.5,48.5C 13.2148,50.288 13.5481,51.9547 14.5,53.5C 16.306,54.8587 17.806,54.5254 19,52.5C 19.3333,49.5 19.6667,46.5 20,43.5C 23.8762,46.6753 27.3762,50.1753 30.5,54C 31.5,54.6667 32.5,54.6667 33.5,54C 34.4817,46.253 34.815,38.4197 34.5,30.5C 35.29,31.6085 35.79,32.9419 36,34.5C 36.8467,31.4124 36.3467,28.5791 34.5,26C 40.7941,24.51 47.1274,23.1767 53.5,22C 42.4263,21.395 31.4263,22.0616 20.5,24C 11.6701,27.6451 7.67012,34.3117 8.5,44C 8.48522,49.5968 9.15189,55.0968 10.5,60.5C 9.07346,58.8516 8.24013,56.8516 8,54.5C 7.4386,46.7805 7.4386,39.1138 8,31.5C 6.05973,35.9435 5.05973,40.6101 5,45.5C 4.50204,42.5184 4.33537,39.5184 4.5,36.5C 5.70614,27.4576 10.7061,21.6243 19.5,19C 48.4773,14.9836 77.4773,14.6503 106.5,18C 115.011,22.1837 119.678,29.017 120.5,38.5 Z"/></g>
<g><path style="opacity:1" fill="#f3f6fa" d="M 34.5,30.5 C 32.9902,29.2721 31.4902,29.2721 30,30.5C 29.0881,34.7946 28.4215,39.1279 28,43.5C 24.0899,39.2641 20.5899,34.7641 17.5,30C 16.451,29.5078 15.451,29.6744 14.5,30.5C 13.5041,36.4632 13.1707,42.4632 13.5,48.5C 12.5661,51.6557 11.8994,54.9891 11.5,58.5C 11.5,59.1667 11.5,59.8333 11.5,60.5C 11.7373,61.791 11.404,62.791 10.5,63.5C 10.5,62.5 10.5,61.5 10.5,60.5C 9.15189,55.0968 8.48522,49.5968 8.5,44C 7.67012,34.3117 11.6701,27.6451 20.5,24C 31.4263,22.0616 42.4263,21.395 53.5,22C 47.1274,23.1767 40.7941,24.51 34.5,26C 36.3467,28.5791 36.8467,31.4124 36,34.5C 35.79,32.9419 35.29,31.6085 34.5,30.5 Z"/></g>
<g><path style="opacity:1" fill="#9f1a11" d="M 34.5,30.5 C 34.815,38.4197 34.4817,46.253 33.5,54C 32.5,54.6667 31.5,54.6667 30.5,54C 27.3762,50.1753 23.8762,46.6753 20,43.5C 19.6667,46.5 19.3333,49.5 19,52.5C 17.806,54.5254 16.306,54.8587 14.5,53.5C 13.5481,51.9547 13.2148,50.288 13.5,48.5C 13.1707,42.4632 13.5041,36.4632 14.5,30.5C 15.451,29.6744 16.451,29.5078 17.5,30C 20.5899,34.7641 24.0899,39.2641 28,43.5C 28.4215,39.1279 29.0881,34.7946 30,30.5C 31.4902,29.2721 32.9902,29.2721 34.5,30.5 Z"/></g>
<g><path style="opacity:1" fill="#9d140d" d="M 41.5,29.5 C 46.5,29.5 51.5,29.5 56.5,29.5C 56.7394,31.4672 56.4061,33.3005 55.5,35C 52.5184,35.498 49.5184,35.6646 46.5,35.5C 46.5,36.8333 46.5,38.1667 46.5,39.5C 48.5273,39.3379 50.5273,39.5045 52.5,40C 53.3802,41.3561 53.7135,42.8561 53.5,44.5C 51.1667,44.5 48.8333,44.5 46.5,44.5C 46.5,45.8333 46.5,47.1667 46.5,48.5C 49.7766,48.2161 52.9433,48.5495 56,49.5C 56.7203,51.1124 56.5536,52.6124 55.5,54C 50.581,54.8015 45.7477,54.6349 41,53.5C 40.2004,45.4211 40.3671,37.4211 41.5,29.5 Z"/></g>
<g><path style="opacity:1" fill="#9d120b" d="M 61.5,29.5 C 63.1439,29.2865 64.6439,29.6198 66,30.5C 66.6983,35.3732 68.0317,40.0399 70,44.5C 72.7746,37.9574 75.7746,37.9574 79,44.5C 80.7364,39.9564 82.0697,35.2897 83,30.5C 84.9376,29.1398 86.6043,29.4732 88,31.5C 87.2765,39.3458 85.1099,46.8458 81.5,54C 80.0922,54.3152 78.7589,53.9819 77.5,53C 75.3989,48.5086 73.0655,48.5086 70.5,53C 68.8876,53.7203 67.3876,53.5536 66,52.5C 62.8659,44.9998 61.3659,37.3332 61.5,29.5 Z"/></g>
<g><path style="opacity:1" fill="#9d120b" d="M 95.5,30.5 C 99.6372,30.1463 103.637,30.6463 107.5,32C 109.919,33.5088 110.919,35.6755 110.5,38.5C 108.801,38.6602 107.134,38.4935 105.5,38C 103.112,35.1875 100.446,34.8542 97.5,37C 102.28,38.9326 106.78,41.4326 111,44.5C 111.828,48.6971 110.328,51.8637 106.5,54C 102.833,54.6667 99.1667,54.6667 95.5,54C 92.2108,52.5897 90.5441,50.0897 90.5,46.5C 92.5273,46.3379 94.5273,46.5045 96.5,47C 99.4391,50.0533 102.439,50.22 105.5,47.5C 102.293,46.0297 98.9592,44.8631 95.5,44C 90.2088,39.5503 90.2088,35.0503 95.5,30.5 Z"/></g>
<g><path style="opacity:1" fill="#c9d0d6" d="M 10.5,60.5 C 10.5,61.5 10.5,62.5 10.5,63.5C 10.3505,64.552 10.5172,65.552 11,66.5C 11.69,65.2617 12.19,65.2617 12.5,66.5C 12.6941,68.9118 14.0274,69.9118 16.5,69.5C 17.0577,70.7899 18.0577,71.6232 19.5,72C 17.2922,72.1909 15.2922,72.6909 13.5,73.5C 28.1294,75.4837 43.1294,76.1503 58.5,75.5C 60.2589,75.9539 62.2589,75.9539 64.5,75.5C 64.1984,72.9407 64.5318,70.6074 65.5,68.5C 65.2229,71.4475 65.5562,74.2809 66.5,77C 79.5,77.6667 92.5,77.6667 105.5,77C 109.698,77.1344 111.364,75.1344 110.5,71C 111.239,66.2404 109.239,64.4071 104.5,65.5C 105.833,64.1667 107.167,62.8333 108.5,61.5C 109.5,60.8333 110.5,60.1667 111.5,59.5C 114.168,57.6645 116.334,55.3312 118,52.5C 118.333,57.1667 118.667,61.8333 119,66.5C 120.128,57.1996 120.628,47.8662 120.5,38.5C 122.249,60.1075 121.416,81.7742 118,103.5C 116.763,113.406 111.263,119.573 101.5,122C 76.1226,122.944 50.7893,122.277 25.5,120C 21.462,119.101 17.7954,117.434 14.5,115C 11.8345,111.502 9.83454,107.669 8.5,103.5C 9.28997,102.391 9.78997,101.058 10,99.5C 10.444,104.065 12.6107,107.398 16.5,109.5C 19.2531,113.061 22.9198,115.228 27.5,116C 44.5004,117.714 61.3337,118.548 78,118.5C 84.8386,117.477 91.5053,115.81 98,113.5C 99.6658,116.379 102.166,117.212 105.5,116C 109.679,114.169 110.846,111.336 109,107.5C 108.722,108.416 108.222,109.082 107.5,109.5C 107.5,108.833 107.5,108.167 107.5,107.5C 106.766,106.292 106.433,104.959 106.5,103.5C 110.31,102.246 110.31,101.246 106.5,100.5C 106.5,99.1667 106.5,97.8333 106.5,96.5C 107.995,96.5852 108.995,95.9185 109.5,94.5C 107.604,93.5344 105.604,93.2011 103.5,93.5C 102.942,92.2101 101.942,91.3768 100.5,91C 101.416,90.7216 102.082,90.2216 102.5,89.5C 104.924,89.8076 107.257,89.4742 109.5,88.5C 94.6721,87.1739 80.0054,87.1739 65.5,88.5C 63.2362,89.2186 60.9029,89.552 58.5,89.5C 45.6988,87.8397 32.6988,86.8397 19.5,86.5C 17.0667,85.5869 14.5667,84.5869 12,83.5C 11.586,83.9574 11.086,84.2907 10.5,84.5C 9.73846,89.8475 9.07179,95.1808 8.5,100.5C 6.44836,86.7 4.94836,72.7 4,58.5C 3.17818,50.9882 3.34485,43.6549 4.5,36.5C 4.33537,39.5184 4.50204,42.5184 5,45.5C 5.05973,40.6101 6.05973,35.9435 8,31.5C 7.4386,39.1138 7.4386,46.7805 8,54.5C 8.24013,56.8516 9.07346,58.8516 10.5,60.5 Z"/></g>
<g><path style="opacity:1" fill="#27272b" d="M 111.5,59.5 C 110.5,60.1667 109.5,60.8333 108.5,61.5C 76.0934,61.8256 43.76,61.4923 11.5,60.5C 11.5,59.8333 11.5,59.1667 11.5,58.5C 44.4285,57.3412 77.4285,57.1745 110.5,58C 111.056,58.3826 111.389,58.8826 111.5,59.5 Z"/></g>
<g><path style="opacity:1" fill="#d9dde1" d="M 11.5,60.5 C 43.76,61.4923 76.0934,61.8256 108.5,61.5C 107.167,62.8333 105.833,64.1667 104.5,65.5C 91.7869,65.1264 79.1202,65.6264 66.5,67C 65.944,67.3826 65.6107,67.8826 65.5,68.5C 64.5318,70.6074 64.1984,72.9407 64.5,75.5C 62.2589,75.9539 60.2589,75.9539 58.5,75.5C 43.8706,73.5163 28.8706,72.8497 13.5,73.5C 15.2922,72.6909 17.2922,72.1909 19.5,72C 18.0577,71.6232 17.0577,70.7899 16.5,69.5C 30.8649,69.797 45.1982,69.297 59.5,68C 43.8164,67.7354 28.1497,67.2354 12.5,66.5C 12.19,65.2617 11.69,65.2617 11,66.5C 10.5172,65.552 10.3505,64.552 10.5,63.5C 11.404,62.791 11.7373,61.791 11.5,60.5 Z"/></g>
<g><path style="opacity:1" fill="#27272b" d="M 12.5,66.5 C 28.1497,67.2354 43.8164,67.7354 59.5,68C 45.1982,69.297 30.8649,69.797 16.5,69.5C 14.0274,69.9118 12.6941,68.9118 12.5,66.5 Z"/></g>
<g><path style="opacity:1" fill="#252529" d="M 104.5,65.5 C 109.239,64.4071 111.239,66.2404 110.5,71C 111.364,75.1344 109.698,77.1344 105.5,77C 92.5,77.6667 79.5,77.6667 66.5,77C 65.5562,74.2809 65.2229,71.4475 65.5,68.5C 65.6107,67.8826 65.944,67.3826 66.5,67C 79.1202,65.6264 91.7869,65.1264 104.5,65.5 Z"/></g>
<g><path style="opacity:1" fill="#1d1d21" d="M 13.5,73.5 C 28.8706,72.8497 43.8706,73.5163 58.5,75.5C 43.1294,76.1503 28.1294,75.4837 13.5,73.5 Z"/></g>
<g><path style="opacity:1" fill="#242529" d="M 47.5,79.5 C 51.1667,79.5 54.8333,79.5 58.5,79.5C 58.5,80.5 58.5,81.5 58.5,82.5C 43.4852,82.8327 28.4852,82.4993 13.5,81.5C 24.9929,80.8333 36.3262,80.1667 47.5,79.5 Z"/></g>
<g><path style="opacity:1" fill="#1d1d21" d="M 65.5,80.5 C 80.5148,80.1673 95.5148,80.5007 110.5,81.5C 103,81.8333 95.5,82.1667 88,82.5C 80.1356,82.4975 72.6356,81.8308 65.5,80.5 Z"/></g>
<g><path style="opacity:1" fill="#d3d9de" d="M 19.5,86.5 C 17.712,86.2148 16.0453,86.5481 14.5,87.5C 14.7093,88.086 15.0426,88.586 15.5,89C 29.8295,89.4999 44.1628,89.6666 58.5,89.5C 60.9029,89.552 63.2362,89.2186 65.5,88.5C 77.6554,89.4952 89.9887,89.8286 102.5,89.5C 102.082,90.2216 101.416,90.7216 100.5,91C 101.942,91.3768 102.942,92.2101 103.5,93.5C 90.8267,93.9601 78.1601,94.6267 65.5,95.5C 79.1504,96.4992 92.8171,96.8325 106.5,96.5C 106.5,97.8333 106.5,99.1667 106.5,100.5C 51.8605,102.164 51.8605,103.164 106.5,103.5C 106.433,104.959 106.766,106.292 107.5,107.5C 51.5,108.167 51.5,108.833 107.5,109.5C 108.222,109.082 108.722,108.416 109,107.5C 110.846,111.336 109.679,114.169 105.5,116C 102.166,117.212 99.6658,116.379 98,113.5C 91.5053,115.81 84.8386,117.477 78,118.5C 61.3337,118.548 44.5004,117.714 27.5,116C 22.9198,115.228 19.2531,113.061 16.5,109.5C 12.6107,107.398 10.444,104.065 10,99.5C 9.78997,101.058 9.28997,102.391 8.5,103.5C 8.5,102.5 8.5,101.5 8.5,100.5C 9.07179,95.1808 9.73846,89.8475 10.5,84.5C 11.086,84.2907 11.586,83.9574 12,83.5C 14.5667,84.5869 17.0667,85.5869 19.5,86.5 Z"/></g>
<g><path style="opacity:1" fill="#313136" d="M 19.5,86.5 C 32.6988,86.8397 45.6988,87.8397 58.5,89.5C 44.1628,89.6666 29.8295,89.4999 15.5,89C 15.0426,88.586 14.7093,88.086 14.5,87.5C 16.0453,86.5481 17.712,86.2148 19.5,86.5 Z"/></g>
<g><path style="opacity:1" fill="#212125" d="M 102.5,89.5 C 89.9887,89.8286 77.6554,89.4952 65.5,88.5C 80.0054,87.1739 94.6721,87.1739 109.5,88.5C 107.257,89.4742 104.924,89.8076 102.5,89.5 Z"/></g>
<g><path style="opacity:1" fill="#2d2e32" d="M 14.5,93.5 C 29.1542,94.1849 43.8208,94.6849 58.5,95C 44.3202,96.6471 29.9868,96.9804 15.5,96C 14.7476,95.3292 14.4142,94.4959 14.5,93.5 Z"/></g>
<g><path style="opacity:1" fill="#343539" d="M 103.5,93.5 C 105.604,93.2011 107.604,93.5344 109.5,94.5C 108.995,95.9185 107.995,96.5852 106.5,96.5C 92.8171,96.8325 79.1504,96.4992 65.5,95.5C 78.1601,94.6267 90.8267,93.9601 103.5,93.5 Z"/></g>
<g><path style="opacity:1" fill="#1e1e22" d="M 16.5,100.5 C 30.5159,100.167 44.5159,100.501 58.5,101.5C 51.5,101.833 44.5,102.167 37.5,102.5C 30.1333,102.497 23.1333,101.83 16.5,100.5 Z"/></g>
<g><path style="opacity:1" fill="#2e2e33" d="M 106.5,100.5 C 110.31,101.246 110.31,102.246 106.5,103.5C 51.8605,103.164 51.8605,102.164 106.5,100.5 Z"/></g>
<g><path style="opacity:1" fill="#25262a" d="M 16.5,109.5 C 21.2876,108.172 26.4543,107.505 32,107.5C 40.8691,106.928 49.7024,106.928 58.5,107.5C 58.2907,108.086 57.9574,108.586 57.5,109C 43.8374,109.5 30.1707,109.667 16.5,109.5 Z"/></g>
<g><path style="opacity:1" fill="#1d1d21" d="M 107.5,107.5 C 107.5,108.167 107.5,108.833 107.5,109.5C 51.5,108.833 51.5,108.167 107.5,107.5 Z"/></g>
</svg>
