<svg xmlns="http://www.w3.org/2000/svg" width="128" height="128" style="shape-rendering:geometricPrecision;text-rendering:geometricPrecision;image-rendering:optimizeQuality;fill-rule:evenodd;clip-rule:evenodd"><path style="opacity:.96" fill="#8c9195" d="M64.5-.5h20c7.93.648 15.93 1.815 24 3.5 8.161 4.795 12.995 11.961 14.5 21.5 2.497 27.446 1.497 54.78-3 82-1.619 8.954-6.786 14.787-15.5 17.5a384.618 384.618 0 0 1-85-3c-6.167-2.167-10.333-6.333-12.5-12.5-5.354-28.465-7.021-57.132-5-86C3.986 13.182 9.486 7.015 18.5 4a539.415 539.415 0 0 1 46-4.5z"/><path style="opacity:1" fill="#ced4d9" d="M54.5 2.5a411.09 411.09 0 0 1 46 1.5c7.581.952 12.747 4.785 15.5 11.5-3.687-4.68-8.52-7.18-14.5-7.5a407.74 407.74 0 0 0-82 2c-5.212 1.198-9.378 4.031-12.5 8.5C8.684 12.815 12.518 8.981 18.5 7c12.116-1.58 24.117-3.08 36-4.5z"/><path style="opacity:1" fill="#d4dade" d="M44.5 9.5c18.003-.167 36.003 0 54 .5 8.039.18 14.039 3.68 18 10.5l-.5 1c-3.297-3.067-7.131-5.233-11.5-6.5a396.484 396.484 0 0 0-86 2c-4.74 1.119-8.572 3.619-11.5 7.5 1.616-5.295 5.116-9.128 10.5-11.5a798.844 798.844 0 0 1 27-3.5z"/><path style="opacity:1" fill="#dfe1e5" d="M120.5 38.5c.128 9.366-.372 18.7-1.5 28l-1-14c-1.666 2.831-3.832 5.164-6.5 7-.111-.617-.444-1.117-1-1.5a1646.259 1646.259 0 0 0-99 .5c.4-3.51 1.066-6.844 2-10-.285 1.788.048 3.455 1 5 1.806 1.359 3.306 1.025 4.5-1l1-9A74.336 74.336 0 0 1 30.5 54c1 .667 2 .667 3 0a141.789 141.789 0 0 0 1-23.5c.79 1.108 1.29 2.442 1.5 4 .847-3.088.347-5.92-1.5-8.5a389.42 389.42 0 0 1 19-4 143.485 143.485 0 0 0-33 2c-8.83 3.645-12.83 10.312-12 20a67.165 67.165 0 0 0 2 16.5c-1.427-1.648-2.26-3.648-2.5-6a157.257 157.257 0 0 1 0-23c-1.94 4.444-2.94 9.11-3 14a40.936 40.936 0 0 1-.5-9c1.206-9.042 6.206-14.876 15-17.5 28.977-4.016 57.977-4.35 87-1 8.511 4.184 13.178 11.017 14 20.5z"/><path style="opacity:1" fill="#f3f6fa" d="M34.5 30.5c-1.51-1.228-3.01-1.228-4.5 0a116.244 116.244 0 0 0-2 13A100.52 100.52 0 0 1 17.5 30c-1.049-.492-2.049-.326-3 .5a81.872 81.872 0 0 0-1 18c-.934 3.156-1.6 6.49-2 10v2c.237 1.291-.096 2.291-1 3v-3a67.165 67.165 0 0 1-2-16.5c-.83-9.688 3.17-16.355 12-20a143.485 143.485 0 0 1 33-2 389.42 389.42 0 0 0-19 4c1.847 2.58 2.347 5.412 1.5 8.5-.21-1.558-.71-2.892-1.5-4z"/><path style="opacity:1" fill="#9f1a11" d="M34.5 30.5c.315 7.92-.018 15.753-1 23.5-1 .667-2 .667-3 0A74.336 74.336 0 0 0 20 43.5l-1 9c-1.194 2.025-2.694 2.359-4.5 1-.952-1.545-1.285-3.212-1-5a81.872 81.872 0 0 1 1-18c.951-.826 1.951-.992 3-.5A100.52 100.52 0 0 0 28 43.5a116.244 116.244 0 0 1 2-13c1.49-1.228 2.99-1.228 4.5 0z"/><path style="opacity:1" fill="#9d140d" d="M41.5 29.5h15c.24 1.967-.094 3.8-1 5.5a40.936 40.936 0 0 1-9 .5v4a18.436 18.436 0 0 1 6 .5c.88 1.356 1.214 2.856 1 4.5h-7v4c3.277-.284 6.443.05 9.5 1 .72 1.612.554 3.112-.5 4.5-4.919.801-9.752.635-14.5-.5a99.61 99.61 0 0 1 .5-24z"/><path style="opacity:1" fill="#9d120b" d="M61.5 29.5c1.644-.213 3.144.12 4.5 1a53.199 53.199 0 0 0 4 14c2.775-6.543 5.775-6.543 9 0a84.016 84.016 0 0 0 4-14c1.938-1.36 3.604-1.027 5 1-.724 7.846-2.89 15.346-6.5 22.5-1.408.315-2.741-.018-4-1-2.101-4.491-4.434-4.491-7 0-1.612.72-3.112.554-4.5-.5-3.134-7.5-4.634-15.167-4.5-23zM95.5 30.5c4.137-.354 8.137.146 12 1.5 2.419 1.509 3.419 3.675 3 6.5a12.935 12.935 0 0 1-5-.5c-2.388-2.813-5.054-3.146-8-1a63.134 63.134 0 0 1 13.5 7.5c.828 4.197-.672 7.364-4.5 9.5a30.499 30.499 0 0 1-11 0c-3.29-1.41-4.956-3.91-5-7.5a18.436 18.436 0 0 1 6 .5c2.94 3.053 5.939 3.22 9 .5a57.123 57.123 0 0 0-10-3.5c-5.291-4.45-5.291-8.95 0-13.5z"/><path style="opacity:1" fill="#c9d0d6" d="M10.5 60.5v3a4.932 4.932 0 0 0 .5 3c.69-1.238 1.19-1.238 1.5 0 .194 2.412 1.527 3.412 4 3 .558 1.29 1.558 2.123 3 2.5-2.208.19-4.208.69-6 1.5 14.63 1.984 29.63 2.65 45 2 1.759.454 3.759.454 6 0-.302-2.56.032-4.893 1-7-.277 2.948.056 5.78 1 8.5 13 .667 26 .667 39 0 4.198.134 5.864-1.866 5-6 .739-4.76-1.261-6.593-6-5.5l4-4 3-2c2.668-1.836 4.834-4.169 6.5-7l1 14a208.615 208.615 0 0 0 1.5-28c1.749 21.608.916 43.274-2.5 65-1.237 9.906-6.737 16.073-16.5 18.5-25.377.944-50.71.277-76-2a28.868 28.868 0 0 1-11-5 37.91 37.91 0 0 1-6-11.5c.79-1.109 1.29-2.442 1.5-4 .444 4.565 2.61 7.898 6.5 10 2.753 3.561 6.42 5.728 11 6.5 17 1.714 33.834 2.548 50.5 2.5a106.608 106.608 0 0 0 20-5c1.666 2.879 4.166 3.712 7.5 2.5 4.179-1.831 5.346-4.664 3.5-8.5-.278.916-.778 1.582-1.5 2v-2c-.734-1.208-1.067-2.541-1-4 3.81-1.254 3.81-2.254 0-3v-4c1.495.085 2.495-.582 3-2a9.864 9.864 0 0 0-6-1c-.558-1.29-1.558-2.123-3-2.5.916-.278 1.582-.778 2-1.5a13.118 13.118 0 0 0 7-1c-14.828-1.326-29.495-1.326-44 0a21.445 21.445 0 0 1-7 1 378.802 378.802 0 0 0-39-3 194.46 194.46 0 0 1-7.5-3c-.414.457-.914.79-1.5 1a469.072 469.072 0 0 0-2 16 522.088 522.088 0 0 1-4.5-42c-.822-7.512-.655-14.845.5-22a40.936 40.936 0 0 0 .5 9c.06-4.89 1.06-9.556 3-14a157.257 157.257 0 0 0 0 23c.24 2.352 1.073 4.352 2.5 6z"/><path style="opacity:1" fill="#27272b" d="m111.5 59.5-3 2c-32.407.326-64.74-.008-97-1v-2a1646.259 1646.259 0 0 1 99-.5c.556.383.889.883 1 1.5z"/><path style="opacity:1" fill="#d9dde1" d="M11.5 60.5c32.26.992 64.593 1.326 97 1l-4 4a275.882 275.882 0 0 0-38 1.5c-.556.383-.89.883-1 1.5-.968 2.107-1.302 4.44-1 7-2.241.454-4.241.454-6 0-14.63-1.984-29.63-2.65-45-2 1.792-.81 3.792-1.31 6-1.5-1.442-.377-2.442-1.21-3-2.5a387.13 387.13 0 0 0 43-1.5c-15.684-.265-31.35-.765-47-1.5-.31-1.238-.81-1.238-1.5 0a4.932 4.932 0 0 1-.5-3c.904-.709 1.237-1.709 1-3z"/><path style="opacity:1" fill="#27272b" d="M12.5 66.5c15.65.735 31.316 1.235 47 1.5a387.13 387.13 0 0 1-43 1.5c-2.473.412-3.806-.588-4-3z"/><path style="opacity:1" fill="#252529" d="M104.5 65.5c4.739-1.093 6.739.74 6 5.5.864 4.134-.802 6.134-5 6-13 .667-26 .667-39 0-.944-2.72-1.277-5.552-1-8.5.11-.617.444-1.117 1-1.5a275.882 275.882 0 0 1 38-1.5z"/><path style="opacity:1" fill="#1d1d21" d="M13.5 73.5c15.37-.65 30.37.016 45 2-15.37.65-30.37-.016-45-2z"/><path style="opacity:1" fill="#242529" d="M47.5 79.5h11v3c-15.015.333-30.015 0-45-1a20634.2 20634.2 0 0 0 34-2z"/><path style="opacity:1" fill="#1d1d21" d="M65.5 80.5c15.015-.333 30.015 0 45 1l-22.5 1c-7.864-.002-15.364-.67-22.5-2z"/><path style="opacity:1" fill="#d3d9de" d="M19.5 86.5c-1.788-.285-3.455.048-5 1 .21.586.543 1.086 1 1.5 14.33.5 28.663.667 43 .5a21.445 21.445 0 0 0 7-1 342.839 342.839 0 0 0 37 1c-.418.722-1.084 1.222-2 1.5 1.442.377 2.442 1.21 3 2.5a1167.85 1167.85 0 0 0-38 2 421.14 421.14 0 0 0 41 1v4c-54.64 1.664-54.64 2.664 0 3-.067 1.459.266 2.792 1 4-56 .667-56 1.333 0 2 .722-.418 1.222-1.084 1.5-2 1.846 3.836.679 6.669-3.5 8.5-3.334 1.212-5.834.379-7.5-2.5a106.608 106.608 0 0 1-20 5c-16.666.048-33.5-.786-50.5-2.5-4.58-.772-8.247-2.939-11-6.5-3.89-2.102-6.056-5.435-6.5-10-.21 1.558-.71 2.891-1.5 4v-3a469.072 469.072 0 0 1 2-16 3.646 3.646 0 0 0 1.5-1 194.46 194.46 0 0 0 7.5 3z"/><path style="opacity:1" fill="#313136" d="M19.5 86.5c13.199.34 26.199 1.34 39 3-14.337.167-28.67 0-43-.5a3.646 3.646 0 0 1-1-1.5c1.545-.952 3.212-1.285 5-1z"/><path style="opacity:1" fill="#212125" d="M102.5 89.5a342.839 342.839 0 0 1-37-1c14.505-1.326 29.172-1.326 44 0a13.118 13.118 0 0 1-7 1z"/><path style="opacity:1" fill="#2d2e32" d="M14.5 93.5a1744.18 1744.18 0 0 0 44 1.5c-14.18 1.647-28.513 1.98-43 1-.752-.67-1.086-1.504-1-2.5z"/><path style="opacity:1" fill="#343539" d="M103.5 93.5a9.864 9.864 0 0 1 6 1c-.505 1.418-1.505 2.085-3 2-13.683.332-27.35 0-41-1a1167.85 1167.85 0 0 1 38-2z"/><path style="opacity:1" fill="#1e1e22" d="M16.5 100.5a441.816 441.816 0 0 1 42 1l-21 1c-7.367-.003-14.367-.67-21-2z"/><path style="opacity:1" fill="#2e2e33" d="M106.5 100.5c3.81.746 3.81 1.746 0 3-54.64-.336-54.64-1.336 0-3z"/><path style="opacity:1" fill="#25262a" d="M16.5 109.5c4.788-1.328 9.954-1.995 15.5-2 8.87-.572 17.702-.572 26.5 0a3.646 3.646 0 0 1-1 1.5c-13.663.5-27.33.667-41 .5z"/><path style="opacity:1" fill="#1d1d21" d="M107.5 107.5v2c-56-.667-56-1.333 0-2z"/></svg>